<?xml version="1.0" encoding="UTF-8" standalone="no"?>
<!-- Created with Inkscape (http://www.inkscape.org/) -->

<svg
   width="1000"
   height="928.88501"
   viewBox="0 0 26458334 24576750"
   version="1.1"
   id="svg1"
   sodipodi:docname="shell.svg"
   inkscape:version="1.3 (0e150ed6c4, 2023-07-21)"
   xml:space="preserve"
   xmlns:inkscape="http://www.inkscape.org/namespaces/inkscape"
   xmlns:sodipodi="http://sodipodi.sourceforge.net/DTD/sodipodi-0.dtd"
   xmlns="http://www.w3.org/2000/svg"
   xmlns:svg="http://www.w3.org/2000/svg"
   xmlns:rdf="http://www.w3.org/1999/02/22-rdf-syntax-ns#"
   xmlns:cc="http://creativecommons.org/ns#"
   xmlns:dc="http://purl.org/dc/elements/1.1/"><title
     id="title1">Shell Isotype</title><sodipodi:namedview
     id="namedview1"
     pagecolor="#ffffff"
     bordercolor="#666666"
     borderopacity="1.0"
     inkscape:showpageshadow="true"
     inkscape:pageopacity="0.0"
     inkscape:pagecheckerboard="false"
     inkscape:deskcolor="#d1d1d1"
     inkscape:document-units="px"
     showgrid="false"
     showborder="true"
     borderlayer="true"
     showguides="true"
     inkscape:zoom="0.37331095"
     inkscape:cx="219.65603"
     inkscape:cy="452.70572"
     inkscape:window-width="1366"
     inkscape:window-height="705"
     inkscape:window-x="-8"
     inkscape:window-y="-8"
     inkscape:window-maximized="1"
     inkscape:current-layer="layer1" /><defs
     id="defs1" /><g
     inkscape:label="Capa 1"
     inkscape:groupmode="layer"
     id="layer1"
     transform="translate(-7949550.9,-14545220)"><g
       id="g1"
       transform="matrix(60.841924,0,0,60.841924,-475054900,-869752500)"
       style="stroke-width:0.016436"><path
         d="m 8040151.5,14898370 -8437.7,-70139 -58009.5,-41662 c -2636.8,-12129 -3691.5,-24786 -3691.5,-37442 0,-103363 83850.1,-186686 186685.1,-186686 103362.4,0 186685.1,83851 186685.1,186686 0,12656 -1054.6,25313 -3691.5,37442 l -57482.1,41662 -8965.1,70139 z"
         fill="#fbce07"
         id="path2"
         style="stroke-width:95.9062"
         sodipodi:nodetypes="cccssscccc" /><path
         d="M 8132189.2,14916918 H 8027157 l -9336.2,-77607 -64186.3,-46098 c -2917.6,-13421 -4084.6,-27425 -4084.6,-41429 0,-114369 92778.4,-206564 206563.3,-206564 113784.9,0 206563.3,92779 206563.3,206564 0,14004 -1167,28008 -4084.6,41429 l -63602.8,46098 -9919.7,77607 h -105032.2 l -5835.1,4668 c -5251.6,4084 -11670.3,5835 -18088.9,5835 -6418.6,0 -12837.3,-2334 -18088.9,-5835 z m 3501.1,-36178 h -76440.1 l -7585.7,-61852 -63019.3,-45514 c -1750.5,-7002 -2917.5,-14588 -2917.5,-22174 0,-12254 2334,-24507 7585.6,-35594 l 111450.8,112618 -107949.7,-133624 c 4084.6,-17506 13420.8,-32677 26841.6,-44931 l 96863,167468 -85776.3,-182639 c 11086.7,-14588 26841.5,-25675 44346.9,-30926 l 59518.2,207730 -43179.9,-216483 c 13420.8,-7586 28008.6,-11087 43179.9,-11087 2917.6,0 6418.7,0 9336.2,584 l 8752.7,224652 8752.7,-224652 c 2917.6,-584 6418.6,-584 9336.2,-584 15171.3,0 29759.1,4085 43179.9,11087 l -43179.9,216483 59518.2,-208314 c 17505.4,5252 33260.2,16338 44346.9,30926 l -86359.7,183223 96863,-167468 c 13420.7,11670 22756.9,27425 26841.5,44931 l -107949.7,133624 111450.8,-112618 c 5251.6,11087 7585.6,23340 7585.6,35594 0,7586 -1167,14588 -2917.5,22174 l -63019.3,45514 -7585.7,61852 h -75856.5 l -11670.3,8169 c -2917.6,2334 -6418.6,2918 -9919.7,2918 -3501.1,0 -7002.1,-1167 -9919.7,-2918 z"
         fill="#dd1d21"
         fill-rule="evenodd"
         id="path3"
         style="stroke-width:95.9062" /></g></g><metadata
     id="metadata1"><rdf:RDF><cc:Work
         rdf:about=""><dc:title>Shell Isotype</dc:title><dc:subject><rdf:Bag><rdf:li>Shell</rdf:li><rdf:li>Isotype</rdf:li><rdf:li>Logotipo</rdf:li><rdf:li>Logo</rdf:li><rdf:li>Brand</rdf:li><rdf:li>Symbol</rdf:li><rdf:li>Icon</rdf:li><rdf:li>Símbolo</rdf:li><rdf:li>Ícono</rdf:li><rdf:li>Marca</rdf:li><rdf:li>SVG</rdf:li><rdf:li>Vector</rdf:li><rdf:li>Scalable</rdf:li><rdf:li>Escalable</rdf:li><rdf:li>Tranparent</rdf:li><rdf:li>Transparente</rdf:li><rdf:li>PDF</rdf:li></rdf:Bag></dc:subject></cc:Work></rdf:RDF></metadata></svg>
